<svg id="icon-white" xmlns="http://www.w3.org/2000/svg" viewBox="0 0 105.11 113.71"><defs><style>.cls-1{fill:#fff;}</style></defs><path class="cls-1" d="M56.57,6l-4,1.3c-10,3.27-17.07,7.05-18.83,10.06a3.18,3.18,0,0,0-.4,3c.45,1.05,1.25,1.84,3.47,3.41a36.92,36.92,0,0,1,4,3.4A25.75,25.75,0,0,1,48.68,47q-.51,12.85-12,25.69a82.55,82.55,0,0,1-10.71,9.71c-4.4,3.53-6.79,5.8-8.41,8-5,6.8-3.66,12.85,3.95,17.92C28.2,112.79,40,116.51,54,118.53c4.68.68,10,1.12,11.24.92l.89-.13,1.4-2.52C74.6,104.06,78.18,92,78.61,79.59a55.28,55.28,0,0,0-1.7-16,10.36,10.36,0,0,1-.36-1.29s2-.62,4.4-1.33a315.85,315.85,0,0,1,34.89-8.47,29.8,29.8,0,0,0,3.73-.78c.54-.52-1-3-3.58-5.61C106.56,36.42,89.89,29,70.35,25.86c-3.77-.61-4.23-.83-5.63-2.69-2.22-2.94-4.31-8-7.16-17.16-.09-.29-.18-.3-1,0Zm1.3,3.47a27.66,27.66,0,0,1,1.77,6.16v.66l-.93-.11c-5-.59-13.08-1.83-14.79-2.29-.43-.12-.69-.29-.61-.42s1.84-1,6.92-3.34C55,8,56.76,7.15,56.91,7.14a15.72,15.72,0,0,1,1,2.3Zm-10.66,6.3a117.2,117.2,0,0,0,11.62,2.1c1,0,.85.09-3.67,2.84C51.67,22.8,51.28,23,50.39,23h-1l-2.58-2.62c-3.13-3.17-5.25-5.49-5.25-5.75s.06-.14.15-.09,2.55.59,5.46,1.2Zm-4.54,2.91A26.61,26.61,0,0,1,45.29,22a52.93,52.93,0,0,1-7.08-1.75c-2.3-.71-2.57-.95-2-1.73a25.9,25.9,0,0,1,3.59-3s1.32,1.42,2.83,3.18ZM62.29,22.3c.6,1.43,1.06,2.59,1,2.61s-8.11-1.23-8.82-1.37a16.22,16.22,0,0,1,3.06-2.08,19.11,19.11,0,0,1,3.49-1.88c.08.08.63,1.29,1.23,2.72ZM44.68,25c.15.16,2.08,6.36,2,6.44a26.93,26.93,0,0,1-2-2.38c-1.1-1.35-2.75-3.24-3.7-4.23l-1.72-1.79,2.67.92a29.7,29.7,0,0,1,2.79,1Zm7.72.83c3.35.48,6.13.91,6.17,1s-2,1.63-4.5,3.5-4.6,3.38-4.63,3.35-.28-.81-.56-1.74-1-2.87-1.59-4.32-1-2.62-1-2.62l6.14.87Zm8.41,2.68c.75,1.73,1,3.39,1.15,6.7a23.19,23.19,0,0,1,0,3.23c-.06,0-1.12-.37-2.35-.81-2.46-.89-7.27-2.48-7.85-2.59-.25-.05.91-1.16,4-3.79,2.38-2,4.39-3.71,4.49-3.71a2.41,2.41,0,0,1,.58,1Zm8.65.41,7.2,1.5c.37.09-.51.65-4.44,2.79L65.42,37c-1,.59-1.91,1-1.93,1a8.17,8.17,0,0,1,.24-1.23A12.59,12.59,0,0,0,62.81,29c-.32-.69-.59-1.3-.59-1.35s.67,0,7.24,1.31Zm10.11,4.53c-.19.84-.6,2.27-.93,3.2-.71,2-3.3,7.34-3.65,7.48A12,12,0,0,1,72.3,42.9C71,42.16,69,41.18,68,40.73l-1.85-.82L73,35.55c5.63-3.6,6.81-4.28,6.86-4a8.54,8.54,0,0,1-.26,1.89Zm5-1.54c7,2,14.47,4.75,14,5.15a13.85,13.85,0,0,1-2,.68,157,157,0,0,0-16.15,5.58,10.61,10.61,0,0,1-2,.77,27.66,27.66,0,0,1,.94-3.45,89.37,89.37,0,0,0,2.4-9.16c0-.28.1-.37.34-.3l2.53.73Zm-30.27,7.3a38.39,38.39,0,0,1,4.17,1.59c1.25.63,1.26.63.9,1-.64.71-7.63,7.22-7.83,7.29a7.18,7.18,0,0,1-.18-2.38,70.78,70.78,0,0,0-.5-7.94c-.16-.75,0-.73,3.44.41ZM99,40.52A91.49,91.49,0,0,1,93.05,49a75.47,75.47,0,0,1-6,6.74,8.48,8.48,0,0,1-1.27-1.58,32.33,32.33,0,0,0-7.16-7.61c-.21-.15-.35-.32-.29-.37s3.8-1.43,8.32-3.07c9.16-3.33,13.19-4.67,13.44-4.5a14.45,14.45,0,0,1-1.09,2Zm5.73-.44c6.33,4.42,10.62,8,12.18,10.11a4.28,4.28,0,0,1,.64,1s-2.07.26-4.53.5c-9.81,1-16.8,2-20.5,2.89-1,.25-1.82.45-1.83.43s.63-.82,1.46-1.81c4.28-5.14,8.14-10.48,9.57-13.25a5.21,5.21,0,0,1,.83-1.32,21.79,21.79,0,0,1,2.18,1.42ZM69.26,45.56a7.3,7.3,0,0,1,2.08,1.34c-.09.18-10.76,6-10.85,6s.53-1.77,1.23-3.91,1.38-4.46,1.51-5.18l.24-1.3,1.8,1,4,2.14Zm-8.94.33c-1,3.57-3.11,8.18-4.07,9-.22.18-.65-.07-2.06-1.21-1-.8-2-1.58-2.27-1.77s-.45-.37-.41-.42c.74-.72,9.23-7.58,9.27-7.47a12.09,12.09,0,0,1-.46,1.9ZM79.64,52.1c1.61,1.07,5.18,4.27,5,4.46s-3.67,1.22-8,2.6-9.22,2.94-10.8,3.47-2.89.95-2.91.94,1.09-1.28,2.46-2.81c3.57-4,7.24-8.25,8.54-9.93L75,49.38l1.46.79c.8.44,2.24,1.31,3.17,1.93Zm-8.25-2.28-2.14,2.71c-1.08,1.37-3.67,4.68-5.76,7.38L59.68,64.8,59.56,64A32.54,32.54,0,0,0,58,58.16l-.49-1.07,2.42-1.21c2.5-1.25,7.71-4.08,10.15-5.5,1.53-.89,1.62-.93,1.34-.56ZM51.18,55.73a5.23,5.23,0,0,1,1.92,1.38,46.82,46.82,0,0,1-6.62,5.12,17.76,17.76,0,0,1,1.29-2.56,35.38,35.38,0,0,0,1.7-3.42c.19-.52.46-.94.61-.94a4.34,4.34,0,0,1,1.1.42Zm5.5,6.14c.44.87.9,3.32.66,3.54s-2.75,1.35-5.92,2.8-7.29,3.4-9.17,4.35A28.73,28.73,0,0,1,39.08,74c.13-.12,2.21-1.86,4.6-3.86,4.64-3.86,9.94-8.47,10.9-9.49l.58-.61.58.54a5.59,5.59,0,0,1,.94,1.26Zm-5.22-.06c-.46.41-2.94,2.58-5.5,4.8l-6.84,5.94c-2.41,2.11-2.41,2.11.67-1.92a24,24,0,0,1,7.07-6.58,38.76,38.76,0,0,1,5.31-3c.07,0-.25.34-.71.75Zm24,2.12a44,44,0,0,1,.35,4.51L76,71.76l-.78-.36c-2.65-1.23-10.12-5.43-9.85-5.54,1.63-.66,9.7-3.33,9.79-3.24a4.7,4.7,0,0,1,.37,1.31Zm-6.33,5.95,5.72,3.38A4.32,4.32,0,0,1,74,74c-1,.72-11.53,6.18-11.67,6a12.63,12.63,0,0,1,.31-2,59.84,59.84,0,0,0,.63-10.45c-.06-.71,0-1.21.07-1.15s2.72,1.59,5.83,3.43Zm-8.61-1.35a28.23,28.23,0,0,1-.58,8C59.34,78.94,59,80,58.71,80s-2.67-2-4.08-3.72-3.28-5.08-3-5.35,8.39-3.55,8.65-3.56a2.61,2.61,0,0,1,.27,1.12Zm-10.08,5a28.65,28.65,0,0,0,5,6.6c1.4,1.41,1.75,1.87,1.54,2a70.87,70.87,0,0,1-8.11,3.79,65.56,65.56,0,0,1-7.81,2.7s1-1.86,2.22-4c2.73-4.74,6.18-11.44,6.18-12,0-.71.29-.42.94.93Zm-5.16.11c-.06.13-.47,1.18-.92,2.33-1.94,4.91-5.71,11.59-6.55,11.59-.66,0-1.62-3.88-1.89-7.63L35.81,78l4.61-2.33c2.54-1.28,4.7-2.33,4.8-2.33s.15.11.09.25Zm30.78,4.55c0,2.83-1.17,9.68-1.8,10.36-.27.29-3.19-.79-5.83-2.15-2.36-1.22-6.24-3.63-6.24-3.87a5.17,5.17,0,0,1,1.33-.68c1.39-.58,7.91-4.06,10.66-5.7l1.59-.94.14.73a18.48,18.48,0,0,1,.15,2.25ZM32.66,81.42a31.56,31.56,0,0,0,1.82,7.15,8.93,8.93,0,0,1,.56,1.7c-.34.31-14.19,4.12-16,4.41l-.87.14.13-.68A22,22,0,0,1,20.82,89a32,32,0,0,1,6.33-6.35,37.57,37.57,0,0,1,5.26-3.07s.13.86.25,1.87Zm31.42,4.71a69.1,69.1,0,0,0,8,3.47l1.57.54-1,.5C67,93.48,57.08,97.53,54.51,98c-.58.11-.66.08-.55-.21.45-1.15,6.36-13.38,6.48-13.38s1.72.76,3.64,1.68Zm-7.52-.45a68.79,68.79,0,0,1-2.88,8.23,48.29,48.29,0,0,1-3.06,5.76c-.15.15-3.53-1.75-5.13-2.89-1.81-1.28-5.74-5.08-5.63-5.43a42.79,42.79,0,0,1,5.33-2.06c6.09-2.1,9.5-3.36,10.49-3.88s1-.47.88.27Zm17,6.44c0,.42-.4,2.26-.77,4.12-1.16,5.83-2.57,9.82-3.47,9.82a92.14,92.14,0,0,1-12.47-3,16.39,16.39,0,0,1-4-1.87c-.33-.29-.16-.4,2.28-1.39C63,96.57,72,92.49,73,91.71c.58-.47.68-.4.56.41ZM33.86,93.91a100.87,100.87,0,0,1-6.2,8.92l-3,4-.89-.64a19.21,19.21,0,0,1-4.06-4.41,10.88,10.88,0,0,1-1.57-4.66l-.06-1.07,1.47-.15A110.46,110.46,0,0,0,31.1,93.51c1.8-.47,3.3-.83,3.34-.8a6.08,6.08,0,0,1-.58,1.2ZM42.49,98c1,.71,2.35,1.61,3.06,2l1.27.74-.58.24c-.32.13-4.92,1.81-10.26,3.74-9.1,3.29-9.7,3.48-9.95,3.14a.94.94,0,0,1-.23-.47c0-.07,2.48-3.25,5.47-7.07l5.44-7,2,1.67c1.11.92,2.8,2.23,3.78,2.94Zm2.24,10.45c-2,3-3.67,5.48-3.72,5.56s-3.33-.55-5.71-1.35a24.73,24.73,0,0,1-6.78-3.43l-.87-.75,2-.54c8-2.18,18.65-5,18.7-5s-1.59,2.49-3.58,5.47Zm9.56-4.5a56.94,56.94,0,0,0,13.16,2.83l1.39.15-3.75,1.35c-9.35,3.38-16.94,5.76-20.75,6.5-1.07.2-2.05.38-2.16.38a12.55,12.55,0,0,1,1.7-2.32c2.87-3.49,6-7.46,6.79-8.69a4.47,4.47,0,0,1,.88-1.09c.09,0,1.31.4,2.74.89Zm13.95,7.88c-1.61,4.16-2.79,6.69-3.21,6.85-.79.3-11.85-1.32-15.22-2.24-2.24-.6-3.67-1.2-3.25-1.34.16-.06,1.76-.43,3.57-.84a140.64,140.64,0,0,0,18.45-5.61,3.89,3.89,0,0,1,.93-.32s-.53,1.59-1.27,3.5Z" transform="translate(-14.57 -5.78)"/></svg>